<svg width="32" height="33" viewBox="0 0 32 33" fill="none" xmlns="http://www.w3.org/2000/svg">
<path d="M22.0671 6.36353C22.463 9.86965 21.0026 10.1698 17.9819 10.5168C17.5966 11.8579 13.356 13.1011 14.8802 13.5652C16.0383 13.6163 19.6636 13.6695 19.8212 14.0378C20.4981 16.5924 16.3087 16.6924 14.4162 15.8771C12.5471 14.7765 10.8739 16.388 11.2038 19.2832C11.5976 23.1682 14.0223 20.4902 15.0931 22.3316C16.6067 29.974 19.5636 25.2374 20.3448 20.6498C22.1181 19.0171 19.223 18.5487 20.1894 17.182C20.8494 16.5093 24.4215 19.8984 22.8696 15.9197C22.5333 14.4529 24.7387 14.8553 25.4433 15.7068C25.9265 15.098 26.2352 13.6312 27.5721 14.0868" stroke="white" stroke-width="1.3" stroke-linecap="round" stroke-linejoin="round"/>
<path d="M9.57525 7.20654C10.5162 10.8468 6.22452 13.8058 4.19153 16.7329" stroke="white" stroke-width="1.3" stroke-linecap="round" stroke-linejoin="round"/>
<path d="M4.84509 19.713C6.97388 18.4229 8.16601 22.0546 9.61146 23.234C11.1442 24.1792 9.70512 26.0419 9.86477 26.8976" stroke="white" stroke-width="1.3" stroke-linecap="round" stroke-linejoin="round"/>
<path d="M16 28.5837C22.6274 28.5837 28 23.2112 28 16.5837C28 9.95632 22.6274 4.58374 16 4.58374C9.37258 4.58374 4 9.95632 4 16.5837C4 23.2112 9.37258 28.5837 16 28.5837Z" stroke="white" stroke-width="1.3" stroke-linecap="round" stroke-linejoin="round"/>
</svg>
