<svg width="68" height="85" viewBox="0 0 68 85" fill="none" xmlns="http://www.w3.org/2000/svg">
<path d="M34.0001 72.8266C33.8105 72.8262 33.6234 72.7839 33.4521 72.7028C33.2808 72.6216 33.1295 72.5036 33.0091 72.3572C32.1399 71.3315 11.5562 47.0448 11.5562 35.0145C11.5562 29.062 13.9208 23.3533 18.1298 19.1442C22.3389 14.9352 28.0476 12.5706 34.0001 12.5706C39.9525 12.5706 45.6612 14.9352 49.8703 19.1442C54.0793 23.3533 56.444 29.062 56.444 35.0145C56.444 47.0448 35.8776 71.3315 34.991 72.3572C34.8706 72.5036 34.7193 72.6216 34.548 72.7028C34.3767 72.7839 34.1896 72.8262 34.0001 72.8266ZM34.0001 15.1957C31.3928 15.1934 28.8107 15.7047 26.4011 16.7003C23.9915 17.6959 21.8016 19.1564 19.9564 20.9984C18.1112 22.8403 16.6469 25.0277 15.647 27.4355C14.6472 29.8434 14.1314 32.4246 14.1291 35.0318C14.1291 44.6805 29.7755 64.4471 33.9653 69.4887C38.155 64.4297 53.8362 44.6631 53.8362 35.0318C53.8316 29.7724 51.7403 24.7296 48.0213 21.0106C44.3022 17.2916 39.2595 15.2003 34.0001 15.1957Z" fill="white"/>
<path d="M34.0001 43.8982C32.3634 43.8982 30.7635 43.4129 29.4026 42.5036C28.0418 41.5943 26.9811 40.3019 26.3548 38.7898C25.7284 37.2777 25.5646 35.6138 25.8839 34.0086C26.2032 32.4033 26.9913 30.9288 28.1486 29.7715C29.3059 28.6142 30.7804 27.8261 32.3857 27.5068C33.9909 27.1875 35.6548 27.3514 37.1669 27.9777C38.6789 28.604 39.9714 29.6647 40.8807 31.0255C41.7899 32.3864 42.2753 33.9863 42.2753 35.623C42.2753 37.8177 41.4034 39.9225 39.8515 41.4744C38.2996 43.0263 36.1948 43.8982 34.0001 43.8982ZM34.0001 29.9903C32.8791 29.9903 31.7834 30.3227 30.8514 30.9454C29.9194 31.5682 29.193 32.4533 28.764 33.4889C28.335 34.5245 28.2228 35.664 28.4415 36.7634C28.6602 37.8628 29.1999 38.8727 29.9926 39.6653C30.7852 40.4579 31.795 40.9977 32.8944 41.2163C33.9938 41.435 35.1333 41.3228 36.1689 40.8938C37.2045 40.4649 38.0897 39.7385 38.7124 38.8064C39.3352 37.8744 39.6675 36.7787 39.6675 35.6578C39.6698 34.9112 39.525 34.1715 39.2415 33.4809C38.9579 32.7903 38.5411 32.1624 38.0148 31.6329C37.4885 31.1034 36.8631 30.6827 36.1742 30.3949C35.4854 30.1071 34.7466 29.9578 34.0001 29.9555V29.9903Z" fill="#F6ABB6"/>
</svg>
