<svg width="14" height="17" viewBox="0 0 14 17" fill="none" xmlns="http://www.w3.org/2000/svg">
    <path
        d="M12.3589 7.60098H11.2411V4.77771C11.2411 2.4391 9.33862 0.536621 6.99986 0.536621C4.66142 0.536621 2.75893 2.43914 2.75893 4.77771V7.60098H1.6411C0.935164 7.60098 0.361084 8.17519 0.361084 8.88099V15.2566C0.361084 15.9624 0.935131 16.5366 1.6411 16.5366H12.3589C13.0648 16.5366 13.6389 15.9624 13.6389 15.2566V8.88099C13.6389 8.17522 13.0648 7.60098 12.3589 7.60098ZM3.39892 4.77771C3.39892 2.79209 5.01424 1.17661 6.99986 1.17661C8.98547 1.17661 10.6011 2.79209 10.6011 4.77771V7.60098H3.39892V4.77771ZM12.9989 15.2566C12.9989 15.6096 12.7117 15.8966 12.3589 15.8966H1.6411C1.28828 15.8966 1.00111 15.6096 1.00111 15.2566V8.88099C1.00111 8.52801 1.28831 8.241 1.6411 8.241H2.7589H11.2411H12.3589C12.7117 8.241 12.9989 8.52804 12.9989 8.88099V15.2566H12.9989Z"
        fill="black" />
</svg>