<svg version="1.1" id="Layer_1" xmlns="http://www.w3.org/2000/svg" xmlns:xlink="http://www.w3.org/1999/xlink" x="0px" y="0px"
	 width="100%" viewBox="0 0 1280 443" enable-background="new 0 0 1280 443" xml:space="preserve">
<path fill="#FEFEFE" opacity="1.000000" stroke="none" 
	d="
M1281.000000,204.000000 
	C1281.000000,283.973419 1281.000000,363.946808 1281.000000,444.000000 
	C940.639832,444.000000 600.279602,444.000000 259.558167,443.599487 
	C261.657196,442.885315 264.111298,442.508514 266.578674,442.267578 
	C302.004944,438.807739 337.437653,435.412903 372.858612,431.900055 
	C389.893463,430.210632 405.221741,424.619843 417.483368,412.031281 
	C428.647125,400.569916 434.300232,386.695038 436.354309,371.226624 
	C437.353333,371.554779 438.085541,371.679932 438.817719,371.805084 
	C438.878479,370.312897 438.992279,368.820679 438.992401,367.328491 
	C439.000824,271.885895 439.000000,176.443314 438.999359,81.000732 
	C438.999329,79.834816 439.357880,78.483070 438.887634,77.552277 
	C438.356689,76.501465 437.076660,75.829155 436.035889,74.585037 
	C433.005981,46.876888 419.166046,27.439442 393.405334,17.665903 
	C384.842316,14.417143 375.341766,13.140781 366.142151,12.158983 
	C334.204529,8.750525 302.208435,5.891735 270.242615,2.742058 
	C267.464813,2.468352 264.746155,1.594879 262.000000,1.000000 
	C601.549988,1.000000 941.100037,1.000000 1281.000000,1.000000 
	C1281.000000,68.026459 1281.000000,135.053528 1280.675049,202.440002 
	C1275.521973,196.953796 1270.693726,191.108215 1266.000122,185.425491 
	C1264.936646,185.804184 1264.415161,185.888092 1264.008057,186.149704 
	C1251.163086,194.403229 1236.088501,184.382614 1236.566284,169.140121 
	C1237.489258,139.689728 1236.827026,110.189339 1236.788452,80.709717 
	C1236.785522,78.451309 1236.517456,76.193245 1236.311157,72.977837 
	C1228.833984,77.680893 1222.183228,81.963936 1215.422119,86.065536 
	C1212.889771,87.601875 1211.917725,89.421745 1211.934082,92.487152 
	C1212.075317,118.801674 1211.942627,145.117752 1212.109375,171.431976 
	C1212.135254,175.511597 1212.741455,179.749069 1213.966309,183.633865 
	C1223.068726,212.502747 1257.136475,222.783447 1281.000000,204.000000 
M655.926086,331.574066 
	C652.958252,327.448181 649.990417,323.322266 647.758179,320.218964 
	C653.759644,313.664124 660.269958,308.383392 664.462036,301.657776 
	C682.512878,272.697449 663.808655,228.650238 622.500977,227.157806 
	C608.354858,226.646698 594.166077,227.383789 580.013184,226.977844 
	C561.738464,226.453674 548.306580,240.907120 548.615356,258.056488 
	C549.251343,293.372437 548.796692,328.707947 548.807922,364.035431 
	C548.808472,365.627014 548.977112,367.218567 549.067261,368.806335 
	C557.694763,368.806335 565.807312,368.806335 574.590881,368.806335 
	C574.590881,354.537567 574.590881,340.475464 574.590881,326.009491 
	C588.720276,326.009491 602.181702,326.136627 615.637451,325.913940 
	C618.734314,325.862701 620.512024,326.977264 622.146118,329.313507 
	C628.619446,338.568359 635.842041,347.373871 641.528625,357.082855 
	C646.991882,366.410339 653.677246,370.915588 664.687256,369.177582 
	C670.075256,368.327026 675.708496,369.030273 682.554077,369.030273 
	C673.221802,355.934235 664.760376,344.060211 655.926086,331.574066 
M597.521301,155.015961 
	C602.867310,164.357712 613.928955,165.364227 620.541931,155.569794 
	C625.265259,148.574112 631.150940,142.360718 636.552490,135.826767 
	C638.680054,133.253250 640.901428,130.757309 644.078125,127.066513 
	C644.078125,156.382294 644.078125,184.066315 644.078125,211.829681 
	C652.683105,211.829681 660.795227,211.829681 669.200378,211.829681 
	C669.396423,210.025436 669.727051,208.396332 669.728027,206.767044 
	C669.752747,165.791061 669.760193,124.815041 669.721313,83.839073 
	C669.715088,77.245056 666.442017,72.556702 660.903442,70.750450 
	C655.337952,68.935417 650.252075,70.796333 646.181458,76.302422 
	C642.232849,81.643494 638.398254,87.068764 634.505249,92.451080 
	C626.179626,103.961914 617.848633,115.468895 609.265625,127.328674 
	C607.249268,124.685898 605.601807,122.622673 604.056396,120.485580 
	C593.537537,105.939171 583.049133,91.370789 572.531555,76.823448 
	C568.341736,71.028297 563.072937,68.903229 557.589294,70.720154 
	C551.703674,72.670273 548.968811,76.960121 548.968262,84.272156 
	C548.965332,125.581291 548.965332,166.890427 548.964294,208.199570 
	C548.964233,209.317093 548.964294,210.434616 548.964294,212.035416 
	C555.861145,212.035416 562.330139,211.732040 568.754761,212.135391 
	C573.533997,212.435455 575.037781,210.990128 574.990479,206.092041 
	C574.757324,181.941788 574.886108,157.788025 574.887146,133.635513 
	C574.887207,131.986069 574.887085,130.336639 574.887085,128.687195 
	C575.264587,128.668808 575.642029,128.650406 576.019531,128.632019 
	C583.029724,137.246735 590.039978,145.861435 597.521301,155.015961 
M967.561401,107.978188 
	C944.615540,109.148216 927.957336,120.143547 919.175598,141.234634 
	C910.378540,162.362442 914.423889,182.604721 930.511780,198.319077 
	C951.736755,219.051239 976.314331,219.086884 1001.888977,204.082886 
	C1001.888977,207.130722 1001.888977,209.513275 1001.888977,211.782425 
	C1010.076965,211.782425 1017.846191,211.782425 1025.697266,211.782425 
	C1025.697266,165.147858 1025.697266,118.777115 1025.697266,72.425407 
	C1017.574341,72.425407 1009.843140,72.425407 1001.512451,72.425407 
	C1001.512451,87.811974 1001.512451,102.820190 1001.512451,118.716751 
	C990.990295,111.597694 980.305908,107.941658 967.561401,107.978188 
M864.974426,304.664551 
	C862.443054,319.982697 864.386230,334.578369 872.546936,347.965302 
	C888.560059,374.233490 923.302856,379.794373 944.071106,360.835358 
	C944.749878,360.215759 945.527771,359.704895 946.950928,358.612518 
	C946.950928,362.505188 946.950928,365.561432 946.950928,368.682953 
	C955.956482,368.682953 964.512085,368.682953 973.052612,368.682953 
	C973.052612,333.394958 973.052612,298.449463 973.052612,263.304138 
	C964.294922,263.304138 955.742859,263.304138 946.709961,263.304138 
	C946.709961,267.126160 946.709961,270.649353 946.709961,274.708496 
	C944.735168,273.102570 943.352295,271.930725 941.921082,270.821411 
	C926.779297,259.085846 906.379211,257.676453 889.882446,267.383118 
	C875.918762,275.599335 868.409302,288.302307 864.974426,304.664551 
M701.985596,332.272980 
	C701.210999,329.674194 700.436462,327.075409 699.465149,323.816498 
	C728.469666,323.816498 756.551147,323.816498 784.578430,323.816498 
	C787.342529,296.092407 772.315491,265.677002 735.638428,261.276184 
	C708.773010,258.052704 684.175415,273.738434 676.383362,299.717346 
	C668.217346,326.943085 680.148499,355.408081 704.695190,366.789368 
	C717.906250,372.914764 731.726257,373.212524 745.759888,370.212585 
	C757.901123,367.617218 768.539917,362.309418 777.533020,352.876221 
	C771.090332,347.555328 764.980347,342.509216 759.107971,337.659332 
	C754.466614,340.529083 750.452454,343.608093 745.970703,345.671295 
	C731.952209,352.124878 710.451355,350.438934 701.985596,332.272980 
M1113.857666,209.718338 
	C1133.046997,217.748840 1151.281372,215.296417 1169.021729,203.834244 
	C1169.021729,207.005432 1169.021729,209.294434 1169.021729,211.725067 
	C1176.824341,211.725067 1184.377441,211.725067 1191.866943,211.725067 
	C1191.866943,177.342194 1191.866943,143.283096 1191.866943,109.236832 
	C1184.082275,109.236832 1176.549072,109.236832 1168.885376,109.236832 
	C1168.885376,110.962341 1168.914551,112.290779 1168.877441,113.617363 
	C1168.838379,115.007492 1168.735718,116.395851 1168.635742,118.252228 
	C1166.946289,117.326866 1165.800659,116.722450 1164.676514,116.080292 
	C1149.766113,107.561890 1134.180420,105.369377 1117.725464,110.978287 
	C1097.702881,117.803276 1083.248047,137.265930 1082.156128,158.941406 
	C1081.091187,180.080231 1093.811890,200.723312 1113.857666,209.718338 
M759.840820,112.624519 
	C721.825745,92.924591 678.209167,121.830719 679.812927,161.518661 
	C680.655151,182.360291 690.113159,197.925125 707.958496,207.731583 
	C726.221802,217.767731 745.402527,217.336197 763.066650,206.338760 
	C798.873779,184.045731 797.263489,134.138763 759.840820,112.624519 
M800.326050,118.578476 
	C800.326050,149.647507 800.326050,180.716522 800.326050,211.681702 
	C809.085022,211.681702 816.988342,211.681702 825.227173,211.681702 
	C825.227173,209.497162 825.227478,207.681412 825.227173,205.865677 
	C825.224670,189.704742 824.784668,173.529327 825.319336,157.386185 
	C826.176880,131.493912 850.045410,123.872543 866.406006,131.866623 
	C876.383606,136.741867 878.692871,146.112091 878.781372,156.180847 
	C878.929321,173.006989 878.821716,189.835358 878.821716,206.662796 
	C878.821716,208.409637 878.821716,210.156494 878.821716,211.698029 
	C887.552429,211.698029 895.458801,211.698029 902.934692,211.698029 
	C902.934692,188.720215 903.451599,166.077957 902.611816,143.486130 
	C902.367920,136.923431 899.364014,129.770248 895.686768,124.157852 
	C884.533997,107.135376 864.847900,104.895058 844.574829,109.502022 
	C837.348206,111.144218 830.845154,115.970001 823.972168,119.362152 
	C823.972168,116.407913 823.972168,112.792221 823.972168,108.901352 
	C816.069153,108.901352 808.509277,108.901352 800.326172,108.901352 
	C800.326172,112.023628 800.326172,114.816025 800.326050,118.578476 
M1075.750488,341.824585 
	C1072.016235,347.399323 1066.328735,349.860046 1059.749756,347.151642 
	C1053.450195,344.558319 1047.736816,340.541656 1041.256226,336.861145 
	C1036.718628,341.854950 1031.405518,347.702057 1026.166138,353.468292 
	C1037.302368,369.049255 1056.737793,375.586700 1075.797852,370.274200 
	C1088.652222,366.691406 1097.481689,358.914520 1100.254883,345.394989 
	C1103.045410,331.790192 1098.110962,321.125244 1087.036743,313.336182 
	C1081.343018,309.331573 1075.128296,306.058105 1069.088623,302.558533 
	C1065.494019,300.475769 1061.520996,298.943878 1058.232056,296.478607 
	C1056.563721,295.228119 1055.093018,292.370148 1055.277466,290.402527 
	C1055.434692,288.726746 1057.822144,286.622009 1059.691284,285.868408 
	C1064.657715,283.866089 1069.560181,285.082184 1073.961060,287.862427 
	C1077.007324,289.786987 1079.806396,292.102875 1082.582520,294.145782 
	C1087.982178,288.766663 1093.255371,283.513489 1098.539551,278.249329 
	C1088.526733,263.348236 1066.985840,256.900146 1049.698730,263.683167 
	C1027.486572,272.398621 1022.974304,298.716919 1041.377930,313.842865 
	C1046.723511,318.236450 1053.070190,321.429138 1059.031372,325.051453 
	C1063.148193,327.553070 1067.456909,329.740479 1071.556763,332.268097 
	C1074.743408,334.232727 1076.642578,337.047638 1075.750488,341.824585 
M810.561890,227.037857 
	C807.446167,227.037857 804.330444,227.037857 801.119873,227.037857 
	C800.867310,228.773926 800.607910,229.734955 800.604980,230.696793 
	C800.502686,263.669495 800.007141,296.647980 800.459229,329.613434 
	C800.922546,363.406891 837.373230,381.649017 865.808533,364.497650 
	C868.623596,362.799683 870.502686,361.302429 867.400513,358.093658 
	C864.868958,355.475098 862.488647,352.659760 860.388733,349.686310 
	C857.245911,345.236176 854.275208,341.021454 848.266174,345.842773 
	C847.939941,346.104553 847.280457,345.910614 846.799194,346.025574 
	C836.044739,348.594604 825.156372,340.556915 825.316101,327.081268 
	C825.671265,297.110199 825.401367,267.131775 825.397095,237.156357 
	C825.395630,227.023788 825.410461,227.023987 815.531311,227.037537 
	C814.199036,227.039368 812.866699,227.038116 810.561890,227.037857 
M1001.513428,263.002014 
	C998.054016,263.002014 994.594604,263.002014 990.914429,263.002014 
	C990.914429,298.486389 990.914429,333.510498 990.914429,368.705688 
	C999.666748,368.705688 1008.204163,368.705688 1016.703735,368.705688 
	C1016.703735,333.357025 1016.703735,298.325439 1016.703735,263.002014 
	C1011.777832,263.002014 1007.143311,263.002014 1001.513428,263.002014 
M1045.990845,187.500000 
	C1045.990845,195.590240 1045.990845,203.680481 1045.990845,211.717682 
	C1054.535522,211.717682 1062.287842,211.717682 1070.053467,211.717682 
	C1070.053467,179.662567 1070.053467,147.930771 1070.053467,115.935287 
	C1061.988037,115.935287 1054.253784,115.935287 1045.990845,115.935287 
	C1045.990845,139.620773 1045.990845,163.060394 1045.990845,187.500000 
M992.757629,249.791687 
	C999.422058,254.821548 1006.372253,255.376495 1012.634705,251.378815 
	C1018.838562,247.418427 1021.575928,240.705948 1020.045105,233.207062 
	C1018.728699,226.758652 1013.114380,221.398270 1006.429871,220.207611 
	C999.628601,218.996155 992.252747,222.328842 988.861816,228.145477 
	C985.122375,234.559998 986.334412,242.163391 992.757629,249.791687 
M1046.187988,95.208183 
	C1055.576172,105.625824 1069.927368,100.547989 1072.933838,90.199989 
	C1074.973999,83.178093 1072.086182,76.107330 1065.984009,72.664093 
	C1059.933960,69.250221 1052.175415,70.384430 1047.209106,75.408737 
	C1042.130981,80.546135 1041.615845,87.616051 1046.187988,95.208183 
z"/>
<path fill="#96164B" opacity="1.000000" stroke="none" 
	d="
M261.531342,1.000000 
	C264.746155,1.594879 267.464813,2.468352 270.242615,2.742058 
	C302.208435,5.891735 334.204529,8.750525 366.142151,12.158983 
	C375.341766,13.140781 384.842316,14.417143 393.405334,17.665903 
	C419.166046,27.439442 433.005981,46.876888 435.953430,75.048126 
	C435.953125,172.126709 435.947784,268.334991 435.950317,364.543274 
	C435.950378,366.703400 436.039734,368.863495 436.087433,371.023621 
	C434.300232,386.695038 428.647125,400.569916 417.483368,412.031281 
	C405.221741,424.619843 389.893463,430.210632 372.858612,431.900055 
	C337.437653,435.412903 302.004944,438.807739 266.578674,442.267578 
	C264.111298,442.508514 261.657196,442.885315 259.098450,443.599487 
	C233.312439,444.000000 207.624878,444.000000 181.313843,443.628571 
	C166.761169,442.176544 152.800812,441.395721 138.909363,439.951721 
	C111.601486,437.113129 84.227661,434.619781 57.075218,430.654449 
	C28.813631,426.527100 10.715771,409.779449 2.824706,382.193848 
	C2.497193,381.048950 1.620723,380.061035 1.000000,379.000000 
	C1.000000,274.645782 1.000000,170.291550 1.371035,65.455521 
	C3.903976,59.448631 5.550804,53.649696 8.317353,48.446075 
	C20.016003,26.441982 39.103493,15.526160 63.393471,13.071603 
	C99.167793,9.456526 134.962097,6.039226 170.741272,2.471484 
	C172.195297,2.326495 173.581955,1.505851 175.000000,1.000000 
	C203.687561,1.000000 232.375122,1.000000 261.531342,1.000000 
M138.626419,217.165314 
	C133.667786,229.865295 130.945694,243.018265 130.931763,256.664032 
	C130.895187,292.494720 130.939194,328.325500 130.950974,364.156250 
	C130.951599,366.066223 130.951050,367.976196 130.951050,370.545624 
	C132.672562,369.709259 133.578461,369.371521 134.377945,368.865692 
	C151.965607,357.737701 169.588516,346.663452 187.036301,335.319885 
	C188.540619,334.341827 189.617676,331.563171 189.632431,329.611389 
	C189.812637,305.780975 189.634323,281.947998 189.797546,258.117340 
	C189.952255,235.532074 204.755173,218.114685 227.068375,215.013016 
	C235.010849,213.908951 243.235703,214.836197 251.231247,214.836197 
	C251.571716,213.918655 251.885666,213.466080 251.886734,213.012756 
	C251.926025,196.514496 251.869980,180.015594 252.008942,163.518326 
	C252.035233,160.395920 250.352493,159.836044 247.981964,159.837097 
	C238.004379,159.841568 227.933167,159.038452 218.065948,160.103439 
	C181.308228,164.070755 153.913376,181.668152 138.626419,217.165314 
M306.370972,156.992020 
	C295.918488,157.496460 285.437012,157.680344 275.024170,158.622803 
	C268.537109,159.209961 266.035309,162.576889 266.004242,168.998886 
	C265.939880,182.318802 265.948578,195.639404 266.002625,208.959412 
	C266.026550,214.857315 268.870087,218.601318 274.534058,219.503494 
	C289.928955,221.955658 305.382080,221.897751 320.777863,219.528976 
	C326.280090,218.682404 329.427002,215.497314 329.527191,210.147263 
	C329.792023,196.003479 329.784698,181.846466 329.469116,167.704010 
	C329.345764,162.175537 326.333374,159.401566 320.713745,158.505859 
	C316.287048,157.800293 311.794769,157.506165 306.370972,156.992020 
M190.874344,71.195015 
	C189.920685,71.487274 188.955505,71.746674 188.015121,72.076744 
	C175.123093,76.601913 166.960022,85.471512 165.143036,99.052757 
	C163.222610,113.407341 168.692337,125.040512 181.199692,132.436920 
	C193.491287,139.705765 206.200745,138.849121 217.934006,130.979324 
	C230.843475,122.320625 235.399017,105.595436 229.548706,91.082390 
	C223.669724,76.498291 208.640686,68.542236 190.874344,71.195015 
z"/>
<path fill="#97184E" opacity="1.000000" stroke="none" 
	d="
M1281.000000,203.750000 
	C1257.136475,222.783447 1223.068726,212.502747 1213.966309,183.633865 
	C1212.741455,179.749069 1212.135254,175.511597 1212.109375,171.431976 
	C1211.942627,145.117752 1212.075317,118.801674 1211.934082,92.487152 
	C1211.917725,89.421745 1212.889771,87.601875 1215.422119,86.065536 
	C1222.183228,81.963936 1228.833984,77.680893 1236.311157,72.977837 
	C1236.517456,76.193245 1236.785522,78.451309 1236.788452,80.709717 
	C1236.827026,110.189339 1237.489258,139.689728 1236.566284,169.140121 
	C1236.088501,184.382614 1251.163086,194.403229 1264.008057,186.149704 
	C1264.415161,185.888092 1264.936646,185.804184 1266.000122,185.425491 
	C1270.693726,191.108215 1275.521973,196.953796 1280.675049,202.899689 
	C1281.000000,203.000000 1281.000000,203.500000 1281.000000,203.750000 
z"/>
<path fill="#FCFAFC" opacity="1.000000" stroke="none" 
	d="
M1.000000,379.468658 
	C1.620723,380.061035 2.497193,381.048950 2.824706,382.193848 
	C10.715771,409.779449 28.813631,426.527100 57.075218,430.654449 
	C84.227661,434.619781 111.601486,437.113129 138.909363,439.951721 
	C152.800812,441.395721 166.761169,442.176544 180.845184,443.628571 
	C121.107315,444.000000 61.214626,444.000000 1.000000,444.000000 
	C1.000000,422.646851 1.000000,401.292084 1.000000,379.468658 
z"/>
<path fill="#FCFAFC" opacity="1.000000" stroke="none" 
	d="
M174.531342,1.000000 
	C173.581955,1.505851 172.195297,2.326495 170.741272,2.471484 
	C134.962097,6.039226 99.167793,9.456526 63.393471,13.071603 
	C39.103493,15.526160 20.016003,26.441982 8.317353,48.446075 
	C5.550804,53.649696 3.903976,59.448631 1.371035,64.986862 
	C1.000000,43.705948 1.000000,22.411896 1.000000,1.000000 
	C58.687511,1.000000 116.375099,1.000000 174.531342,1.000000 
z"/>
<path fill="#97184D" opacity="1.000000" stroke="none" 
	d="
M656.112549,331.880127 
	C664.760376,344.060211 673.221802,355.934235 682.554077,369.030273 
	C675.708496,369.030273 670.075256,368.327026 664.687256,369.177582 
	C653.677246,370.915588 646.991882,366.410339 641.528625,357.082855 
	C635.842041,347.373871 628.619446,338.568359 622.146118,329.313507 
	C620.512024,326.977264 618.734314,325.862701 615.637451,325.913940 
	C602.181702,326.136627 588.720276,326.009491 574.590881,326.009491 
	C574.590881,340.475464 574.590881,354.537567 574.590881,368.806335 
	C565.807312,368.806335 557.694763,368.806335 549.067261,368.806335 
	C548.977112,367.218567 548.808472,365.627014 548.807922,364.035431 
	C548.796692,328.707947 549.251343,293.372437 548.615356,258.056488 
	C548.306580,240.907120 561.738464,226.453674 580.013184,226.977844 
	C594.166077,227.383789 608.354858,226.646698 622.500977,227.157806 
	C663.808655,228.650238 682.512878,272.697449 664.462036,301.657776 
	C660.269958,308.383392 653.759644,313.664124 647.758179,320.218964 
	C649.990417,323.322266 652.958252,327.448181 656.112549,331.880127 
M640.156738,261.433868 
	C634.792236,255.178940 627.938354,252.747711 619.781433,252.896408 
	C607.976807,253.111557 596.165039,252.909607 584.356567,252.954742 
	C577.436279,252.981201 574.767212,255.644592 574.719788,262.625946 
	C574.643982,273.782135 574.663086,284.939117 574.686096,296.095673 
	C574.688721,297.344635 574.976013,298.593048 575.158508,300.061157 
	C590.153564,300.061157 604.794189,299.865997 619.426636,300.127930 
	C629.631042,300.310608 637.784668,296.756897 642.708679,287.788635 
	C647.544006,278.981964 646.364014,270.178772 640.156738,261.433868 
z"/>
<path fill="#97184D" opacity="1.000000" stroke="none" 
	d="
M597.285767,154.746048 
	C590.039978,145.861435 583.029724,137.246735 576.019531,128.632019 
	C575.642029,128.650406 575.264587,128.668808 574.887085,128.687195 
	C574.887085,130.336639 574.887207,131.986069 574.887146,133.635513 
	C574.886108,157.788025 574.757324,181.941788 574.990479,206.092041 
	C575.037781,210.990128 573.533997,212.435455 568.754761,212.135391 
	C562.330139,211.732040 555.861145,212.035416 548.964294,212.035416 
	C548.964294,210.434616 548.964233,209.317093 548.964294,208.199570 
	C548.965332,166.890427 548.965332,125.581291 548.968262,84.272156 
	C548.968811,76.960121 551.703674,72.670273 557.589294,70.720154 
	C563.072937,68.903229 568.341736,71.028297 572.531555,76.823448 
	C583.049133,91.370789 593.537537,105.939171 604.056396,120.485580 
	C605.601807,122.622673 607.249268,124.685898 609.265625,127.328674 
	C617.848633,115.468895 626.179626,103.961914 634.505249,92.451080 
	C638.398254,87.068764 642.232849,81.643494 646.181458,76.302422 
	C650.252075,70.796333 655.337952,68.935417 660.903442,70.750450 
	C666.442017,72.556702 669.715088,77.245056 669.721313,83.839073 
	C669.760193,124.815041 669.752747,165.791061 669.728027,206.767044 
	C669.727051,208.396332 669.396423,210.025436 669.200378,211.829681 
	C660.795227,211.829681 652.683105,211.829681 644.078125,211.829681 
	C644.078125,184.066315 644.078125,156.382294 644.078125,127.066513 
	C640.901428,130.757309 638.680054,133.253250 636.552490,135.826767 
	C631.150940,142.360718 625.265259,148.574112 620.541931,155.569794 
	C613.928955,165.364227 602.867310,164.357712 597.285767,154.746048 
z"/>
<path fill="#97174C" opacity="1.000000" stroke="none" 
	d="
M968.031677,107.977654 
	C980.305908,107.941658 990.990295,111.597694 1001.512451,118.716751 
	C1001.512451,102.820190 1001.512451,87.811974 1001.512451,72.425407 
	C1009.843140,72.425407 1017.574341,72.425407 1025.697266,72.425407 
	C1025.697266,118.777115 1025.697266,165.147858 1025.697266,211.782425 
	C1017.846191,211.782425 1010.076965,211.782425 1001.888977,211.782425 
	C1001.888977,209.513275 1001.888977,207.130722 1001.888977,204.082886 
	C976.314331,219.086884 951.736755,219.051239 930.511780,198.319077 
	C914.423889,182.604721 910.378540,162.362442 919.175598,141.234634 
	C927.957336,120.143547 944.615540,109.148216 968.031677,107.977654 
M978.228088,130.981476 
	C972.785400,130.751099 967.150391,129.499496 961.935974,130.481369 
	C946.136658,133.456375 934.808533,150.017151 937.312927,165.307037 
	C940.041077,181.963608 955.127319,194.221924 971.132690,192.787430 
	C988.085205,191.268021 1001.656372,176.913696 1000.859192,160.490204 
	C1000.161011,146.106979 992.424133,136.402817 978.228088,130.981476 
z"/>
<path fill="#96174C" opacity="1.000000" stroke="none" 
	d="
M865.032776,304.237915 
	C868.409302,288.302307 875.918762,275.599335 889.882446,267.383118 
	C906.379211,257.676453 926.779297,259.085846 941.921082,270.821411 
	C943.352295,271.930725 944.735168,273.102570 946.709961,274.708496 
	C946.709961,270.649353 946.709961,267.126160 946.709961,263.304138 
	C955.742859,263.304138 964.294922,263.304138 973.052612,263.304138 
	C973.052612,298.449463 973.052612,333.394958 973.052612,368.682953 
	C964.512085,368.682953 955.956482,368.682953 946.950928,368.682953 
	C946.950928,365.561432 946.950928,362.505188 946.950928,358.612518 
	C945.527771,359.704895 944.749878,360.215759 944.071106,360.835358 
	C923.302856,379.794373 888.560059,374.233490 872.546936,347.965302 
	C864.386230,334.578369 862.443054,319.982697 865.032776,304.237915 
M890.733154,318.390839 
	C890.839111,319.718719 890.896240,321.052612 891.058594,322.373566 
	C892.721985,335.910034 903.253845,346.721161 915.899658,347.894928 
	C930.204895,349.222717 941.920166,341.836792 946.086121,327.962433 
	C947.624878,322.837555 948.190674,317.099487 947.739319,311.764709 
	C946.791626,300.564636 941.275757,291.782257 930.617920,287.325562 
	C920.549011,283.115082 910.631958,283.987518 901.874451,290.870056 
	C893.337280,297.579346 890.529114,306.950470 890.733154,318.390839 
z"/>
<path fill="#97174C" opacity="1.000000" stroke="none" 
	d="
M702.114258,332.635925 
	C710.451355,350.438934 731.952209,352.124878 745.970703,345.671295 
	C750.452454,343.608093 754.466614,340.529083 759.107971,337.659332 
	C764.980347,342.509216 771.090332,347.555328 777.533020,352.876221 
	C768.539917,362.309418 757.901123,367.617218 745.759888,370.212585 
	C731.726257,373.212524 717.906250,372.914764 704.695190,366.789368 
	C680.148499,355.408081 668.217346,326.943085 676.383362,299.717346 
	C684.175415,273.738434 708.773010,258.052704 735.638428,261.276184 
	C772.315491,265.677002 787.342529,296.092407 784.578430,323.816498 
	C756.551147,323.816498 728.469666,323.816498 699.465149,323.816498 
	C700.436462,327.075409 701.210999,329.674194 702.114258,332.635925 
M745.484924,303.002228 
	C749.579224,303.002228 753.673584,303.002228 757.859436,303.002228 
	C754.982727,290.369781 743.334534,282.748230 727.945984,283.026337 
	C715.038452,283.259583 703.590576,291.872742 701.582520,303.002228 
	C715.903931,303.002228 730.196472,303.002228 745.484924,303.002228 
z"/>
<path fill="#97174C" opacity="1.000000" stroke="none" 
	d="
M1113.532104,209.523895 
	C1093.811890,200.723312 1081.091187,180.080231 1082.156128,158.941406 
	C1083.248047,137.265930 1097.702881,117.803276 1117.725464,110.978287 
	C1134.180420,105.369377 1149.766113,107.561890 1164.676514,116.080292 
	C1165.800659,116.722450 1166.946289,117.326866 1168.635742,118.252228 
	C1168.735718,116.395851 1168.838379,115.007492 1168.877441,113.617363 
	C1168.914551,112.290779 1168.885376,110.962341 1168.885376,109.236832 
	C1176.549072,109.236832 1184.082275,109.236832 1191.866943,109.236832 
	C1191.866943,143.283096 1191.866943,177.342194 1191.866943,211.725067 
	C1184.377441,211.725067 1176.824341,211.725067 1169.021729,211.725067 
	C1169.021729,209.294434 1169.021729,207.005432 1169.021729,203.834244 
	C1151.281372,215.296417 1133.046997,217.748840 1113.532104,209.523895 
M1104.967041,167.386063 
	C1108.552979,184.565155 1125.218994,195.534378 1142.318604,191.970215 
	C1159.979004,188.289185 1170.730591,171.970749 1167.048950,154.435318 
	C1163.574951,137.888474 1146.876709,127.048607 1129.672363,130.171921 
	C1113.193481,133.163559 1101.834106,149.815186 1104.967041,167.386063 
z"/>
<path fill="#97184D" opacity="1.000000" stroke="none" 
	d="
M760.178223,112.777649 
	C797.263489,134.138763 798.873779,184.045731 763.066650,206.338760 
	C745.402527,217.336197 726.221802,217.767731 707.958496,207.731583 
	C690.113159,197.925125 680.655151,182.360291 679.812927,161.518661 
	C678.209167,121.830719 721.825745,92.924591 760.178223,112.777649 
M765.179626,164.741943 
	C766.972046,147.945160 755.328186,132.972336 739.028687,131.114502 
	C722.416260,129.220978 707.686829,140.702774 705.417908,157.965149 
	C703.753662,170.626343 711.676758,188.488373 733.533081,190.760803 
	C746.142517,192.071823 762.376465,182.880829 765.179626,164.741943 
z"/>
<path fill="#98194E" opacity="1.000000" stroke="none" 
	d="
M800.326111,118.093452 
	C800.326172,114.816025 800.326172,112.023628 800.326172,108.901352 
	C808.509277,108.901352 816.069153,108.901352 823.972168,108.901352 
	C823.972168,112.792221 823.972168,116.407913 823.972168,119.362152 
	C830.845154,115.970001 837.348206,111.144218 844.574829,109.502022 
	C864.847900,104.895058 884.533997,107.135376 895.686768,124.157852 
	C899.364014,129.770248 902.367920,136.923431 902.611816,143.486130 
	C903.451599,166.077957 902.934692,188.720215 902.934692,211.698029 
	C895.458801,211.698029 887.552429,211.698029 878.821716,211.698029 
	C878.821716,210.156494 878.821716,208.409637 878.821716,206.662796 
	C878.821716,189.835358 878.929321,173.006989 878.781372,156.180847 
	C878.692871,146.112091 876.383606,136.741867 866.406006,131.866623 
	C850.045410,123.872543 826.176880,131.493912 825.319336,157.386185 
	C824.784668,173.529327 825.224670,189.704742 825.227173,205.865677 
	C825.227478,207.681412 825.227173,209.497162 825.227173,211.681702 
	C816.988342,211.681702 809.085022,211.681702 800.326050,211.681702 
	C800.326050,180.716522 800.326050,149.647507 800.326111,118.093452 
z"/>
<path fill="#97184D" opacity="1.000000" stroke="none" 
	d="
M1075.841431,341.439880 
	C1076.642578,337.047638 1074.743408,334.232727 1071.556763,332.268097 
	C1067.456909,329.740479 1063.148193,327.553070 1059.031372,325.051453 
	C1053.070190,321.429138 1046.723511,318.236450 1041.377930,313.842865 
	C1022.974304,298.716919 1027.486572,272.398621 1049.698730,263.683167 
	C1066.985840,256.900146 1088.526733,263.348236 1098.539551,278.249329 
	C1093.255371,283.513489 1087.982178,288.766663 1082.582520,294.145782 
	C1079.806396,292.102875 1077.007324,289.786987 1073.961060,287.862427 
	C1069.560181,285.082184 1064.657715,283.866089 1059.691284,285.868408 
	C1057.822144,286.622009 1055.434692,288.726746 1055.277466,290.402527 
	C1055.093018,292.370148 1056.563721,295.228119 1058.232056,296.478607 
	C1061.520996,298.943878 1065.494019,300.475769 1069.088623,302.558533 
	C1075.128296,306.058105 1081.343018,309.331573 1087.036743,313.336182 
	C1098.110962,321.125244 1103.045410,331.790192 1100.254883,345.394989 
	C1097.481689,358.914520 1088.652222,366.691406 1075.797852,370.274200 
	C1056.737793,375.586700 1037.302368,369.049255 1026.166138,353.468292 
	C1031.405518,347.702057 1036.718628,341.854950 1041.256226,336.861145 
	C1047.736816,340.541656 1053.450195,344.558319 1059.749756,347.151642 
	C1066.328735,349.860046 1072.016235,347.399323 1075.841431,341.439880 
z"/>
<path fill="#97184E" opacity="1.000000" stroke="none" 
	d="
M811.048157,227.038086 
	C812.866699,227.038116 814.199036,227.039368 815.531311,227.037537 
	C825.410461,227.023987 825.395630,227.023788 825.397095,237.156357 
	C825.401367,267.131775 825.671265,297.110199 825.316101,327.081268 
	C825.156372,340.556915 836.044739,348.594604 846.799194,346.025574 
	C847.280457,345.910614 847.939941,346.104553 848.266174,345.842773 
	C854.275208,341.021454 857.245911,345.236176 860.388733,349.686310 
	C862.488647,352.659760 864.868958,355.475098 867.400513,358.093658 
	C870.502686,361.302429 868.623596,362.799683 865.808533,364.497650 
	C837.373230,381.649017 800.922546,363.406891 800.459229,329.613434 
	C800.007141,296.647980 800.502686,263.669495 800.604980,230.696793 
	C800.607910,229.734955 800.867310,228.773926 801.119873,227.037857 
	C804.330444,227.037857 807.446167,227.037857 811.048157,227.038086 
z"/>
<path fill="#96154B" opacity="1.000000" stroke="none" 
	d="
M1002.011108,263.002014 
	C1007.143311,263.002014 1011.777832,263.002014 1016.703735,263.002014 
	C1016.703735,298.325439 1016.703735,333.357025 1016.703735,368.705688 
	C1008.204163,368.705688 999.666748,368.705688 990.914429,368.705688 
	C990.914429,333.510498 990.914429,298.486389 990.914429,263.002014 
	C994.594604,263.002014 998.054016,263.002014 1002.011108,263.002014 
z"/>
<path fill="#96164B" opacity="1.000000" stroke="none" 
	d="
M1045.990845,187.000000 
	C1045.990845,163.060394 1045.990845,139.620773 1045.990845,115.935287 
	C1054.253784,115.935287 1061.988037,115.935287 1070.053467,115.935287 
	C1070.053467,147.930771 1070.053467,179.662567 1070.053467,211.717682 
	C1062.287842,211.717682 1054.535522,211.717682 1045.990845,211.717682 
	C1045.990845,203.680481 1045.990845,195.590240 1045.990845,187.000000 
z"/>
<path fill="#97184D" opacity="1.000000" stroke="none" 
	d="
M992.494385,249.536926 
	C986.334412,242.163391 985.122375,234.559998 988.861816,228.145477 
	C992.252747,222.328842 999.628601,218.996155 1006.429871,220.207611 
	C1013.114380,221.398270 1018.728699,226.758652 1020.045105,233.207062 
	C1021.575928,240.705948 1018.838562,247.418427 1012.634705,251.378815 
	C1006.372253,255.376495 999.422058,254.821548 992.494385,249.536926 
z"/>
<path fill="#F7F9FF" opacity="1.000000" stroke="none" 
	d="
M436.354309,371.226624 
	C436.039734,368.863495 435.950378,366.703400 435.950317,364.543274 
	C435.947784,268.334991 435.953125,172.126709 436.039978,75.455330 
	C437.076660,75.829155 438.356689,76.501465 438.887634,77.552277 
	C439.357880,78.483070 438.999329,79.834816 438.999359,81.000732 
	C439.000000,176.443314 439.000824,271.885895 438.992401,367.328491 
	C438.992279,368.820679 438.878479,370.312897 438.817719,371.805084 
	C438.085541,371.679932 437.353333,371.554779 436.354309,371.226624 
z"/>
<path fill="#98194E" opacity="1.000000" stroke="none" 
	d="
M1046.000977,94.880814 
	C1041.615845,87.616051 1042.130981,80.546135 1047.209106,75.408737 
	C1052.175415,70.384430 1059.933960,69.250221 1065.984009,72.664093 
	C1072.086182,76.107330 1074.973999,83.178093 1072.933838,90.199989 
	C1069.927368,100.547989 1055.576172,105.625824 1046.000977,94.880814 
z"/>
<path fill="#FDFCFD" opacity="1.000000" stroke="none" 
	d="
M138.788925,216.816452 
	C153.913376,181.668152 181.308228,164.070755 218.065948,160.103439 
	C227.933167,159.038452 238.004379,159.841568 247.981964,159.837097 
	C250.352493,159.836044 252.035233,160.395920 252.008942,163.518326 
	C251.869980,180.015594 251.926025,196.514496 251.886734,213.012756 
	C251.885666,213.466080 251.571716,213.918655 251.231247,214.836197 
	C243.235703,214.836197 235.010849,213.908951 227.068375,215.013016 
	C204.755173,218.114685 189.952255,235.532074 189.797546,258.117340 
	C189.634323,281.947998 189.812637,305.780975 189.632431,329.611389 
	C189.617676,331.563171 188.540619,334.341827 187.036301,335.319885 
	C169.588516,346.663452 151.965607,357.737701 134.377945,368.865692 
	C133.578461,369.371521 132.672562,369.709259 130.951050,370.545624 
	C130.951050,367.976196 130.951599,366.066223 130.950974,364.156250 
	C130.939194,328.325500 130.895187,292.494720 130.931763,256.664032 
	C130.945694,243.018265 133.667786,229.865295 138.788925,216.816452 
z"/>
<path fill="#F6A9B6" opacity="1.000000" stroke="none" 
	d="
M306.851318,157.010651 
	C311.794769,157.506165 316.287048,157.800293 320.713745,158.505859 
	C326.333374,159.401566 329.345764,162.175537 329.469116,167.704010 
	C329.784698,181.846466 329.792023,196.003479 329.527191,210.147263 
	C329.427002,215.497314 326.280090,218.682404 320.777863,219.528976 
	C305.382080,221.897751 289.928955,221.955658 274.534058,219.503494 
	C268.870087,218.601318 266.026550,214.857315 266.002625,208.959412 
	C265.948578,195.639404 265.939880,182.318802 266.004242,168.998886 
	C266.035309,162.576889 268.537109,159.209961 275.024170,158.622803 
	C285.437012,157.680344 295.918488,157.496460 306.851318,157.010651 
z"/>
<path fill="#FDFBFD" opacity="1.000000" stroke="none" 
	d="
M191.279221,71.116356 
	C208.640686,68.542236 223.669724,76.498291 229.548706,91.082390 
	C235.399017,105.595436 230.843475,122.320625 217.934006,130.979324 
	C206.200745,138.849121 193.491287,139.705765 181.199692,132.436920 
	C168.692337,125.040512 163.222610,113.407341 165.143036,99.052757 
	C166.960022,85.471512 175.123093,76.601913 188.015121,72.076744 
	C188.955505,71.746674 189.920685,71.487274 191.279221,71.116356 
z"/>
<path fill="#FEFDFE" opacity="1.000000" stroke="none" 
	d="
M640.406982,261.701355 
	C646.364014,270.178772 647.544006,278.981964 642.708679,287.788635 
	C637.784668,296.756897 629.631042,300.310608 619.426636,300.127930 
	C604.794189,299.865997 590.153564,300.061157 575.158508,300.061157 
	C574.976013,298.593048 574.688721,297.344635 574.686096,296.095673 
	C574.663086,284.939117 574.643982,273.782135 574.719788,262.625946 
	C574.767212,255.644592 577.436279,252.981201 584.356567,252.954742 
	C596.165039,252.909607 607.976807,253.111557 619.781433,252.896408 
	C627.938354,252.747711 634.792236,255.178940 640.406982,261.701355 
z"/>
<path fill="#FDFBFD" opacity="1.000000" stroke="none" 
	d="
M978.617493,131.103928 
	C992.424133,136.402817 1000.161011,146.106979 1000.859192,160.490204 
	C1001.656372,176.913696 988.085205,191.268021 971.132690,192.787430 
	C955.127319,194.221924 940.041077,181.963608 937.312927,165.307037 
	C934.808533,150.017151 946.136658,133.456375 961.935974,130.481369 
	C967.150391,129.499496 972.785400,130.751099 978.617493,131.103928 
z"/>
<path fill="#FEFDFD" opacity="1.000000" stroke="none" 
	d="
M890.702881,317.918213 
	C890.529114,306.950470 893.337280,297.579346 901.874451,290.870056 
	C910.631958,283.987518 920.549011,283.115082 930.617920,287.325562 
	C941.275757,291.782257 946.791626,300.564636 947.739319,311.764709 
	C948.190674,317.099487 947.624878,322.837555 946.086121,327.962433 
	C941.920166,341.836792 930.204895,349.222717 915.899658,347.894928 
	C903.253845,346.721161 892.721985,335.910034 891.058594,322.373566 
	C890.896240,321.052612 890.839111,319.718719 890.702881,317.918213 
z"/>
<path fill="#FDFCFD" opacity="1.000000" stroke="none" 
	d="
M744.986938,303.002228 
	C730.196472,303.002228 715.903931,303.002228 701.582520,303.002228 
	C703.590576,291.872742 715.038452,283.259583 727.945984,283.026337 
	C743.334534,282.748230 754.982727,290.369781 757.859436,303.002228 
	C753.673584,303.002228 749.579224,303.002228 744.986938,303.002228 
z"/>
<path fill="#FDFBFD" opacity="1.000000" stroke="none" 
	d="
M1104.911865,166.967484 
	C1101.834106,149.815186 1113.193481,133.163559 1129.672363,130.171921 
	C1146.876709,127.048607 1163.574951,137.888474 1167.048950,154.435318 
	C1170.730591,171.970749 1159.979004,188.289185 1142.318604,191.970215 
	C1125.218994,195.534378 1108.552979,184.565155 1104.911865,166.967484 
z"/>
<path fill="#FCFCFD" opacity="1.000000" stroke="none" 
	d="
M765.130615,165.148026 
	C762.376465,182.880829 746.142517,192.071823 733.533081,190.760803 
	C711.676758,188.488373 703.753662,170.626343 705.417908,157.965149 
	C707.686829,140.702774 722.416260,129.220978 739.028687,131.114502 
	C755.328186,132.972336 766.972046,147.945160 765.130615,165.148026 
z"/>
</svg>