<svg width="76" height="76" viewBox="0 0 76 76" fill="none" xmlns="http://www.w3.org/2000/svg">
<path d="M38.2113 75.4545C58.863 75.4545 75.6046 58.7241 75.6046 38.0862C75.6046 17.4482 58.863 0.717773 38.2113 0.717773C17.5595 0.717773 0.817871 17.4482 0.817871 38.0862C0.817871 58.7241 17.5595 75.4545 38.2113 75.4545Z" fill="white"/>
<path d="M60.6144 38.2665C60.6144 45.9316 54.4082 52.1454 46.7525 52.1454C39.0968 52.1454 32.8906 45.9316 32.8906 38.2665C32.8906 30.6015 39.0968 24.3877 46.7525 24.3877C54.4082 24.3877 60.6144 30.6015 60.6144 38.2665Z" fill="#F79F1A"/>
<path d="M43.5138 38.2665C43.5138 45.9316 37.3076 52.1454 29.6519 52.1454C21.9962 52.1454 15.79 45.9316 15.79 38.2665C15.79 30.6015 21.9962 24.3877 29.6519 24.3877C37.3076 24.3877 43.5138 30.6015 43.5138 38.2665Z" fill="#EA001B"/>
<path d="M38.2021 27.3408C34.9677 29.8816 32.8916 33.8298 32.8916 38.265C32.8916 42.7003 34.9677 46.6515 38.2021 49.1923C41.4364 46.6515 43.5125 42.7003 43.5125 38.265C43.5125 33.8298 41.4364 29.8816 38.2021 27.3408Z" fill="#FF5F01"/>
</svg>
