<svg width="76" height="76" viewBox="0 0 76 76" fill="none" xmlns="http://www.w3.org/2000/svg">
<path d="M0.900391 38.0862C0.900391 17.4482 17.642 0.717773 38.2938 0.717773C58.9456 0.717773 75.6871 17.4482 75.6871 38.0862C75.6871 58.7241 58.9456 75.4545 38.2938 75.4545C17.642 75.4545 0.900391 58.7241 0.900391 38.0862Z" fill="white"/>
<path d="M32.3929 56.9619L33.0448 52.824L31.5927 52.7904H24.6587L29.4775 22.2567C29.4924 22.1645 29.541 22.0786 29.6121 22.0175C29.6831 21.9565 29.7741 21.9229 29.8688 21.9229H41.5605C45.4419 21.9229 48.1205 22.73 49.5191 24.3231C50.1747 25.0705 50.5922 25.8515 50.7942 26.711C51.0061 27.6128 51.0098 28.6903 50.8029 30.0044L50.7879 30.1003V30.9423L51.4436 31.3135C51.9957 31.6062 52.4345 31.9413 52.771 32.325C53.3319 32.964 53.6946 33.7761 53.848 34.739C54.0063 35.7292 53.9539 36.9076 53.6946 38.2416C53.3955 39.7762 52.9119 41.1128 52.2587 42.2064C51.658 43.2141 50.8926 44.0499 49.984 44.6976C49.1165 45.313 48.0856 45.7801 46.9202 46.079C45.7909 46.373 44.5034 46.5212 43.0911 46.5212H42.1812C41.5306 46.5212 40.8986 46.7554 40.4025 47.1752C39.9052 47.6036 39.5762 48.1891 39.4752 48.8293L39.4066 49.2018L38.2549 56.4948L38.2026 56.7626C38.1889 56.8473 38.1652 56.8897 38.1303 56.9183C38.0991 56.9445 38.0542 56.9619 38.0106 56.9619H32.3929Z" fill="#253B80"/>
<path d="M52.0645 30.1973C52.0296 30.4202 51.9897 30.6482 51.9448 30.8824C50.403 38.7932 45.128 41.5261 38.391 41.5261H34.9607C34.1368 41.5261 33.4426 42.124 33.3142 42.9361L31.5579 54.0669L31.0606 57.2221C30.9771 57.7552 31.3884 58.236 31.9269 58.236H38.0108C38.7312 58.236 39.3432 57.7129 39.4567 57.0029L39.5165 56.6939L40.662 49.4295L40.7355 49.0309C40.8477 48.3184 41.461 47.7953 42.1814 47.7953H43.0913C48.9857 47.7953 53.6001 45.4037 54.9487 38.4831C55.5121 35.592 55.2205 33.178 53.7297 31.4802C53.2785 30.9683 52.7189 30.5435 52.0645 30.1973Z" fill="#179BD7"/>
<path d="M50.4518 29.555C50.2163 29.4865 49.9732 29.4242 49.7239 29.3682C49.4734 29.3134 49.2166 29.2648 48.9524 29.2224C48.0275 29.073 47.0141 29.002 45.9285 29.002H36.7646C36.539 29.002 36.3246 29.053 36.1327 29.1452C35.7101 29.3482 35.396 29.7481 35.32 30.2376L33.3705 42.5766L33.3145 42.9366C33.4428 42.1245 34.1371 41.5266 34.961 41.5266H38.3912C45.1283 41.5266 50.4032 38.7925 51.9451 30.8828C51.9912 30.6487 52.0298 30.4207 52.0647 30.1977C51.6746 29.991 51.2521 29.8141 50.7971 29.6634C50.6849 29.626 50.569 29.5899 50.4518 29.555Z" fill="#222D65"/>
<path d="M36.1324 29.1463C36.3256 29.0541 36.5388 29.003 36.7644 29.003H45.9282C47.0139 29.003 48.0273 29.074 48.9521 29.2235C49.2164 29.2659 49.4731 29.3144 49.7237 29.3692C49.973 29.4253 50.216 29.4876 50.4516 29.5561C50.5688 29.591 50.6847 29.6271 50.7981 29.6632C51.2531 29.8139 51.6756 29.992 52.0657 30.1976C52.5244 27.2741 52.062 25.2836 50.4803 23.4812C48.7365 21.497 45.5892 20.6475 41.5619 20.6475H29.8703C29.0476 20.6475 28.3459 21.2454 28.2187 22.0587L23.3489 52.9063C23.2529 53.5167 23.7241 54.0673 24.3398 54.0673H31.558L33.3703 42.5765L35.3197 30.2374C35.3958 29.7479 35.7099 29.3481 36.1324 29.1463Z" fill="#253B80"/>
</svg>
