<svg width="76" height="76" viewBox="0 0 76 76" fill="none" xmlns="http://www.w3.org/2000/svg">
<path d="M38.252 75.4545C58.9036 75.4545 75.6451 58.7241 75.6451 38.0862C75.6451 17.4482 58.9036 0.717773 38.252 0.717773C17.6004 0.717773 0.858887 17.4482 0.858887 38.0862C0.858887 58.7241 17.6004 75.4545 38.252 75.4545Z" fill="white"/>
<path fill-rule="evenodd" clip-rule="evenodd" d="M39.0395 36.6448C39.0139 38.6741 40.8347 39.8066 42.2063 40.4799C43.6155 41.1708 44.0889 41.6138 44.0835 42.2315C44.0728 43.1771 42.9593 43.5943 41.9172 43.6106C40.1482 43.6383 39.0998 43.144 38.2703 42.7529L38.2017 42.7205L37.5468 45.8079C38.39 46.1994 39.9512 46.5408 41.5702 46.5557C45.3704 46.5557 47.8568 44.6659 47.8702 41.7357C47.8791 39.5111 46.05 38.5436 44.5864 37.7694C43.6034 37.2495 42.7853 36.8168 42.7993 36.149C42.8114 35.645 43.2888 35.1072 44.335 34.9704C44.8527 34.9013 46.2821 34.8485 47.9025 35.6003L48.5386 32.6132C47.6672 32.2935 46.547 31.9874 45.1526 31.9874C41.5756 31.9874 39.0596 33.9029 39.0395 36.6448ZM54.6503 32.2447C53.9564 32.2447 53.3715 32.6525 53.1106 33.2784L47.682 46.3362H51.4795L52.2352 44.2324H56.8758L57.3142 46.3362H60.6612L57.7405 32.2447H54.6503ZM56.2774 41.3428L55.1815 36.0514L53.276 41.3428H56.2774ZM34.4352 32.2447L31.4418 46.3362H35.0605L38.0525 32.2447H34.4352ZM25.3153 41.8359L29.0818 32.2447H32.882L27.019 46.3362H23.1947L20.3089 35.0909C20.1341 34.3987 19.9821 34.144 19.4496 33.8528C18.5796 33.3759 17.1434 32.9302 15.8794 32.6539L15.9655 32.2447H22.1229C22.9069 32.2447 23.6129 32.7704 23.7917 33.6807L25.3153 41.8359Z" fill="url(#paint0_linear_396_1273)"/>
<defs>
<linearGradient id="paint0_linear_396_1273" x1="15.9574" y1="36.4682" x2="28.6043" y2="18.6451" gradientUnits="userSpaceOnUse">
<stop stop-color="#222357"/>
<stop offset="1" stop-color="#254AA5"/>
</linearGradient>
</defs>
</svg>
